<?xml version="1.0" encoding="utf-8"?>
<!-- Generator: Adobe Illustrator 25.4.1, SVG Export Plug-In . SVG Version: 6.00 Build 0)  -->
<svg version="1.1" id="Layer_1" xmlns="http://www.w3.org/2000/svg" xmlns:xlink="http://www.w3.org/1999/xlink" x="0px" y="0px"
	 viewBox="0 0 500 130" style="enable-background:new 0 0 500 130;" xml:space="preserve">
<style type="text/css">
	.st0{fill:#FF5100;}
</style>
<g>
	<polygon class="st0" points="121.42,28.49 121.42,7.7 53.74,7.7 53.74,28.49 8.67,28.49 8.67,49.27 53.74,49.27 53.74,70.05 
		8.67,70.05 8.67,90.84 53.74,90.84 53.74,111.62 121.42,111.62 121.42,90.84 76.32,90.84 76.32,70.05 121.42,70.05 121.42,49.27 
		76.32,49.27 76.32,28.49 	"/>
	<g>
		<path class="st0" d="M167.17,7.7h31v6.72h-22.39v10.2h19.34v6.72h-19.34v11.17h22.39v6.72h-31V7.7z"/>
		<path class="st0" d="M205.59,49.22V7.7h8.28v41.52H205.59z"/>
		<path class="st0" d="M236.19,17.35c9.14,0,15.1,6.35,15.1,14.9v3.85h-21.72v2.08c0,3.72,3.11,5.86,6.69,5.86
			c3.58,0,6.09-1.83,6.49-5.01h8.28c-1.06,6.9-6.69,10.93-14.84,10.93c-9.6,0-15.23-6.59-15.23-16.36S227.05,17.35,236.19,17.35z
			 M229.57,30.17h13.25v-1.1c0-3.36-2.85-5.8-6.62-5.8c-3.77,0-6.62,2.44-6.62,5.8V30.17z"/>
		<path class="st0" d="M266.46,49.22h-8.28V7.7h8.28V49.22z M266.59,32.13l11.33-14.04h9.8l-12.05,14.04l13.11,17.1h-9.21
			L266.59,32.13z"/>
		<path class="st0" d="M301.1,43.3h8.41v5.92h-16.69V7.7h8.28v10.38h8.41v5.92h-8.41V43.3z"/>
		<path class="st0" d="M316,18.08h18.88v5.98h-10.6v25.16H316V18.08z"/>
		<path class="st0" d="M353.82,49.96c-10.13,0-15.83-6.53-15.83-16.3s5.7-16.3,15.83-16.3c10.13,0,15.83,6.53,15.83,16.3
			S363.96,49.96,353.82,49.96z M361.04,29.14c0-3.79-3.11-5.86-7.22-5.86c-4.11,0-7.22,2.14-7.22,5.86v9.04
			c0,3.72,3.11,5.86,7.22,5.86c4.11,0,7.22-2.08,7.22-5.86V29.14z"/>
		<path class="st0" d="M175.45,76.88h-8.28V70.1h8.28V76.88z M167.17,111.62V80.48h8.28v31.14H167.17z"/>
		<path class="st0" d="M221.62,79.75c6.89,0,10.4,4.33,10.4,11.48v20.39h-8.28V91.78c0-3.79-1.52-5.8-4.84-5.8
			c-3.97,0-6.62,3.11-6.62,7.63v18.01H204V91.78c0-3.79-1.52-5.8-4.84-5.8c-3.97,0-6.62,3.11-6.62,7.63v18.01h-8.28V80.48h8.28V85
			c1.92-3.3,4.9-5.25,9.34-5.25c4.84,0,8.02,2.08,9.47,5.8C213.54,81.7,216.91,79.75,221.62,79.75z"/>
		<path class="st0" d="M240.56,122V80.48h8.28v4.21c2.12-3.11,5.43-4.95,9.87-4.95c9.07,0,13.31,7.27,13.31,16.3
			s-4.24,16.3-13.31,16.3c-4.44,0-7.75-1.83-9.87-4.95V122H240.56z M248.84,98.37c0,4.88,2.32,8.06,7.62,8.06
			c4.3,0,6.95-2.32,6.95-5.98v-8.79c0-3.66-2.65-5.98-6.95-5.98c-5.3,0-7.62,3.18-7.62,8.06V98.37z"/>
		<path class="st0" d="M293.29,112.35c-10.13,0-15.83-6.53-15.83-16.3s5.7-16.3,15.83-16.3c10.13,0,15.83,6.53,15.83,16.3
			S303.42,112.35,293.29,112.35z M300.5,91.53c0-3.79-3.11-5.86-7.22-5.86c-4.11,0-7.22,2.14-7.22,5.86v9.04
			c0,3.72,3.11,5.86,7.22,5.86c4.11,0,7.22-2.08,7.22-5.86V91.53z"/>
		<path class="st0" d="M316.2,80.48h18.88v5.98h-10.6v25.16h-8.28V80.48z"/>
		<path class="st0" d="M349.51,105.7h8.41v5.92h-16.69V70.1h8.28v10.38h8.41v5.92h-8.41V105.7z"/>
		<path class="st0" d="M362.7,96.05c0-9.77,5.7-16.3,15.83-16.3s15.83,6.53,15.83,16.3c0,9.77-5.7,16.3-15.83,16.3
			S362.69,105.82,362.7,96.05L362.7,96.05z M380.18,85.79c-0.53-0.06-1.06-0.12-1.66-0.12c-4.11,0-7.22,2.14-7.22,5.86v9.04
			c0,0.61,0.07,1.16,0.2,1.65L380.18,85.79z M375.68,106.06c0.86,0.24,1.79,0.37,2.85,0.37c4.11,0,7.22-2.08,7.22-5.86v-9.04
			c0-1.16-0.33-2.14-0.86-2.99L375.68,106.06z"/>
		<path class="st0" d="M401.44,80.48h18.88v5.98h-10.6v25.16h-8.28V80.48z"/>
		<path class="st0" d="M438.67,79.75c9.14,0,15.1,6.35,15.1,14.9v3.85h-21.72v2.08c0,3.72,3.11,5.86,6.69,5.86s6.09-1.83,6.49-5.01
			h8.28c-1.06,6.9-6.69,10.93-14.84,10.93c-9.6,0-15.23-6.59-15.23-16.36S429.53,79.75,438.67,79.75z M432.04,92.57h13.25v-1.1
			c0-3.36-2.85-5.8-6.62-5.8c-3.77,0-6.62,2.44-6.62,5.8V92.57z"/>
		<path class="st0" d="M468.94,85c2.05-3.3,5.23-5.25,10-5.25c7.55,0,11.06,4.33,11.06,11.48v20.39h-8.28V91.78
			c0-3.66-1.52-5.8-5.5-5.8c-4.57,0-7.29,3.11-7.29,7.63v18.01h-8.28V80.48h8.28V85z"/>
	</g>
</g>
</svg>
